# AST/ASF file generated using VICON BodyLanguage
# -----------------------------------------------
:version 1.10
:name VICON
:units
  mass 1.0
  length 0.45
  angle deg
:documentation
   .ast/.asf automatically generated from VICON data using
   VICON BodyBuilder and BodyLanguage model FoxedUp or BRILLIANT.MOD
:root
   order TX TY TZ RX RY RZ
   axis XYZ
   position 0 0 0  
   orientation 0 0 0 
:bonedata
  begin
     id 1 
     name lhipjoint
     direction 0.567149 -0.783011 0.255413 
     length 2.28399 
     axis 0 0 0  XYZ
  end
  begin
     id 2 
     name lfemur
     direction 0.34202 -0.939693 0  
     length 7.34031  
     axis 0 0 20  XYZ
    dof rx ry rz
    limits (-160.0 20.0)
           (-70.0 70.0)
           (-60.0 70.0)
  end
  begin
     id 3 
     name ltibia
     direction 0.34202 -0.939693 0   
     length 6.9833   
     axis 0 0 20   XYZ
    dof rx
    limits (-10.0 170.0)
  end
  begin
     id 4 
     name lfoot
     direction 0.136498 -0.375025 0.91691   
     length 2.33665   
     axis -90 7.62852e-016 20   XYZ
    dof rx rz
    limits (-45.0 90.0)
           (-70.0 20.0)
  end
  begin
     id 5 
     name ltoes
     direction 1.5367e-011 -4.21617e-011 1   
     length 1.15039   
     axis -90 7.62852e-016 20   XYZ
    dof rx
    limits (-90.0 20.0)
  end
  begin
     id 6 
     name rhipjoint
     direction -0.602854 -0.758518 0.247423   
     length 2.35775  
     axis 0 0 0  XYZ 
  end
  begin
     id 7 
     name rfemur
     direction -0.34202 -0.939693 0   
     length 7.43932   
     axis 0 0 -20   XYZ
    dof rx ry rz
    limits (-160.0 20.0)
           (-70.0 70.0)
           (-70.0 60.0)
  end
  begin
     id 8 
     name rtibia
     direction -0.34202 -0.939693 0   
     length 7.11893   
     axis 0 0 -20   XYZ
    dof rx
    limits (-10.0 170.0)
 end
 begin
     id 9 
     name rfoot
     direction -0.131771 -0.362037 0.922803   
     length 2.53019  
     axis -90 -7.62852e-016 -20   XYZ
    dof rx rz
    limits (-45.0 90.0)
           (-20.0 70.0)
  end
  begin
     id 10 
     name rtoes
     direction -1.53733e-011 -4.21932e-011 1   
     length 1.24596   
     axis -90 -7.62852e-016 -20   XYZ
    dof rx
    limits (-90.0 20.0)
  end
  begin
     id 11 
     name lowerback
     direction 0.0235427 0.999023 -0.0374125   
     length 2.21768   
     axis 0 0 0   XYZ
    dof rx ry rz
    limits (-20.0 45.0)
           (-30.0 30.0)
           (-30.0 30.0)
  end
  begin
     id 12 
     name upperback
     direction 0.0302156 0.996818 -0.073759   
     length 2.20352   
     axis 0 0 0   XYZ
    dof rx ry rz
    limits (-20.0 45.0)
           (-30.0 30.0)
           (-30.0 30.0)
  end
  begin
     id 13 
     name thorax
     direction 0.0187169 0.998235 -0.0563532   
     length 2.22103   
     axis 0 0 0   XYZ
    dof rx ry rz
    limits (-20.0 45.0)
           (-30.0 30.0)
           (-30.0 30.0)
  end
  begin
     id 14 
     name lowerneck
     direction -0.119528 0.987423 0.103481   
     length 1.72948   
     axis 0 0 0   XYZ
    dof rx ry rz
    limits (-20.0 45.0)
           (-30.0 30.0)
           (-30.0 30.0)
  end
  begin
     id 15 
     name upperneck
     direction 0.248049 0.963095 -0.104496   
     length 1.74979   
     axis 0 0 0   XYZ
    dof rx ry rz
    limits (-20.0 45.0)
           (-30.0 30.0)
           (-30.0 30.0)
  end
  begin
     id 16
     name head
     direction 0.0903589 0.994284 -0.056876  
     length 1.78268  
     axis 0 0 0   XYZ
    dof rx ry rz
    limits (-20.0 45.0)
           (-30.0 30.0)
           (-30.0 30.0)
  end
  begin
     id 17 
     name lclavicle
     direction 0.946008 0.242039 -0.215608  
     length 3.80783  
     axis 0 0 0   XYZ
    dof ry rz
    limits (-20.0 10.0)
           (0.0 20.0)
  end
  begin
     id 18 
     name lhumerus
     direction 1 -4.48991e-011 -2.25695e-027   
     length 4.83125   
     axis 180 -30 -90   XYZ
    dof rx ry rz
    limits (-60.0 90.0)
           (-90.0 90.0)
           (-90.0 90.0)
  end
  begin
     id 19
     name lradius
     direction 0.999991 0.00366712 -0.00211721   
     length 3.00391   
     axis 180 -30 -90   XYZ
    dof rx
    limits (-10.0 170.0)
  end
  begin
     id 20
     name lwrist
     direction 0.999991 0.00393016 -0.00141978   
     length 1.50195   
     axis -1.00488e-014 90 90   XYZ
    dof ry
    limits (-180.0 0.0)
 end
  begin
     id 21 
     name lhand
     direction 1 -4.49123e-011 2.72098e-026   
     length 1.2717   
     axis -1.73687e-014 90 90   XYZ
    dof rx rz
    limits (-90.0 90.0)
           (-45.0 45.0)
  end
  begin
     id 22 
     name lfingers
     direction 1 -4.48678e-011 5.4479e-026   
     length 1.02528   
     axis -3.47372e-014 90 90   XYZ
    dof rx
    limits (0.0 90.0)
  end
  begin
     id 23
     name lthumb
     direction 0.707107 -6.34851e-011 0.707107   
     length 1.4721   
     axis -90 45 -1.62303e-014   XYZ
    dof rx rz
    limits (-45.0 45.0)
           (-45.0 45.0)
  end
  begin
     id 24 
     name rclavicle
     direction -0.981723 0.189447 -0.0181673   
     length 3.74989  
     axis 0 0 0   XYZ 
    dof ry rz
    limits (-10.0 20.0)
           (-20.0 0.0)
  end
  begin
     id 25 
     name rhumerus
     direction -1 -4.48985e-011 2.38206e-027  
     length 4.61118   
     axis 180 30 90   XYZ
    dof rx ry rz
    limits (-90.0 60.0)
           (-90.0 90.0)
           (-90.0 90.0)
  end
  begin
     id 26 
     name rradius
     direction -1 -4.48977e-011 7.41019e-027   
     length 2.91491   
     axis 180 30 90   XYZ
    dof rx
    limits (-10.0 170.0)
  end
  begin
     id 27 
     name rwrist
     direction -1 -4.48549e-011 1.3624e-026   
     length 1.45745   
     axis -1.00488e-014 -90 -90   XYZ
    dof ry
    limits (-180.0 0.0)
  end
  begin
     id 28
     name rhand
     direction -1 -4.49107e-011 2.72109e-026   
     length 1.30769   
     axis -1.73687e-014 -90 -90   XYZ
    dof rx rz
    limits (-90.0 90.0)
           (-45.0 45.0)
  end
  begin
     id 29
     name rfingers
     direction -1 -4.48919e-011 5.44468e-026   
     length 1.05429   
     axis -3.47372e-014 -90 -90   XYZ
    dof rx
    limits (0.0 90.0)
  end
  begin
     id 30
     name rthumb
     direction -0.707107 -6.35315e-011 0.707107   
     length 1.51376   
     axis -90 -45 1.62303e-014   XYZ
    dof rx rz
    limits (-45.0 45.0)
           (-45.0 45.0)
  end
:hierarchy
  begin
    root lhipjoint rhipjoint lowerback
    lhipjoint lfemur
    lfemur ltibia
    ltibia lfoot
    lfoot ltoes
    rhipjoint rfemur
    rfemur rtibia
    rtibia rfoot
    rfoot rtoes
    lowerback upperback
    upperback thorax
    thorax lowerneck lclavicle rclavicle
    lowerneck upperneck
    upperneck head
    lclavicle lhumerus
    lhumerus lradius
    lradius lwrist
    lwrist lhand lthumb
    lhand lfingers
    rclavicle rhumerus
    rhumerus rradius
    rradius rwrist
    rwrist rhand rthumb
    rhand rfingers
  end

#!OML:ASF X:\für Bonn\!DataBase\2005_08_11_Bastian_Final\c3d\Bastian.ASF
:FULLY-SPECIFIED
:DEGREES
16
root -1.52314 17.2136 5.44709 161.871 -20.1216 -176.546
lowerback 12.8158 -3.00535 1.17324
upperback 9.12708 -5.07544 0.635934
thorax 2.40107 -3.02515 0.512397
lowerneck -6.93408 -8.11821 -2.20302
upperneck -9.95018 -11.1825 9.27657
head -1.29837 -6.04159 3.19394
rclavicle -9.61466e-015 -5.77407e-015
rhumerus -40.0775 27.2404 -98.1735
rradius 32.6559
rwrist -30.9034
rhand -38.3861 0.702536
rfingers 7.12502
rthumb -11.4116 -28.9669
lclavicle -9.61466e-015 -5.77407e-015
lhumerus -2.83153 -31.1619 89.7724
lradius 71.3169
lwrist -8.1414
lhand -48.7733 -10.7872
lfingers 7.12502
lthumb -21.4113 18.0497
rfemur -12.17 -9.6225 18.7554
rtibia 60.1182
rfoot -2.80716 -11.4342
rtoes -5.21708
lfemur 6.30325 -2.36358 -18.2111
ltibia 30.0791
lfoot -12.3865 -9.64243
ltoes -10.8162
17
root -1.54219 17.2215 5.47285 161.617 -20.2224 -176.607
lowerback 13.3244 -3.10967 1.01984
upperback 9.28195 -5.2742 0.592677
thorax 2.30561 -3.15415 0.604188
lowerneck -7.21685 -8.00184 -2.11734
upperneck -9.86288 -11.05 9.27458
head -1.23492 -5.97735 3.16384
rclavicle -4.16283e-015 1.67134e-014
rhumerus -40.5142 26.7271 -98.5039
rradius 32.6737
rwrist -31.5323
rhand -38.3701 0.444472
rfingers 7.12502
rthumb -11.3962 -29.2258
lclavicle -4.16283e-015 1.67134e-014
lhumerus -1.17539 -31.0151 89.228
lradius 72.7369
lwrist -8.6548
lhand -49.131 -11.0002
lfingers 7.12502
lthumb -21.7549 17.7972
rfemur -13.2566 -9.43357 18.4651
rtibia 61.775
rfoot -0.336295 -11.3692
rtoes -5.26874
lfemur 6.75842 -2.36016 -18.3947
ltibia 29.5928
lfoot -12.0578 -9.69176
ltoes -10.21
18
root -1.56061 17.2298 5.49819 161.381 -20.3153 -176.688
lowerback 13.8127 -3.20842 0.806773
upperback 9.43291 -5.47463 0.573971
thorax 2.22646 -3.28771 0.755044
lowerneck -7.34077 -7.8658 -2.0588
upperneck -9.83632 -10.8823 9.28362
head -1.21781 -5.89761 3.15494
rclavicle -1.03298e-014 7.98866e-015
rhumerus -40.9384 26.4718 -98.8439
rradius 32.6219
rwrist -32.0306
rhand -38.3155 0.254404
rfingers 7.12502
rthumb -11.3435 -29.4188
lclavicle -1.03298e-014 7.98866e-015
lhumerus 0.476237 -30.7909 88.743
lradius 74.1569
lwrist -9.19665
lhand -49.4658 -11.2429
lfingers 7.12502
lthumb -22.0763 17.517
rfemur -14.4003 -9.17719 18.1846
rtibia 63.4484
rfoot 2.11102 -11.4118
rtoes -5.32479
lfemur 7.21009 -2.35236 -18.5963
ltibia 29.0878
lfoot -11.7331 -9.70767
ltoes -9.90997
19
root -1.5782 17.2396 5.52377 161.135 -20.3892 -176.766
lowerback 14.326 -3.31419 0.571608
upperback 9.58528 -5.69235 0.567415
thorax 2.14195 -3.43307 0.936648
lowerneck -7.62548 -7.71882 -1.99155
upperneck -9.62534 -10.7024 9.24698
head -1.11748 -5.79994 3.11356
rclavicle -6.17351e-014 9.88643e-015
rhumerus -41.3384 26.3176 -99.1539
rradius 32.5771
rwrist -32.3561
rhand -38.1347 0.287254
rfingers 7.12502
rthumb -11.1692 -29.3955
lclavicle -6.17351e-014 9.88643e-015
lhumerus 2.1694 -30.4741 88.2729
lradius 75.5207
lwrist -9.73431
lhand -49.78 -11.4417
lfingers 7.12502
lthumb -22.3779 17.2822
rfemur -15.5883 -8.77486 17.9612
rtibia 65.1264
rfoot 4.47716 -11.6831
rtoes -5.43249
lfemur 7.67586 -2.34595 -18.7892
ltibia 28.5627
lfoot -11.3466 -9.71008
ltoes -9.17044
20
root -1.5958 17.2485 5.54945 160.891 -20.4432 -176.823
lowerback 14.8201 -3.42314 0.340751
upperback 9.71553 -5.91274 0.576975
thorax 2.04861 -3.57865 1.13485
lowerneck -7.83686 -7.56966 -1.92928
upperneck -9.3961 -10.5141 9.18712
head -1.02513 -5.69537 3.06956
rclavicle -6.93106e-015 -1.59028e-014
rhumerus -41.7642 26.1474 -99.4078
rradius 32.5515
rwrist -32.3502
rhand -37.9063 0.38558
rfingers 7.12502
rthumb -10.9489 -29.3089
lclavicle -6.93106e-015 -1.59028e-014
lhumerus 3.79642 -30.1333 87.8405
lradius 76.9082
lwrist -10.1714
lhand -50.0912 -11.7229
lfingers 7.12502
lthumb -22.6766 16.9648
rfemur -16.8283 -8.30134 17.8139
rtibia 66.813
rfoot 6.70602 -12.0791
rtoes -6.32022
lfemur 8.14557 -2.35436 -18.9667
ltibia 28.0211
lfoot -10.9754 -9.69129
ltoes -8.67259
21
root -1.61133 17.2568 5.57531 160.641 -20.469 -176.888
lowerback 15.3007 -3.5014 0.056995
upperback 9.86046 -6.10638 0.611758
thorax 1.98879 -3.71631 1.38464
lowerneck -8.0408 -7.42561 -1.89542
upperneck -9.15931 -10.3291 9.14791
head -0.928702 -5.59114 3.03795
rclavicle 5.0718e-014 -2.21148e-014
rhumerus -42.1432 26.0147 -99.5932
rradius 32.5525
rwrist -32.2643
rhand -37.6371 0.671236
rfingers 7.12502
rthumb -10.6892 -29.0368
lclavicle 5.0718e-014 -2.21148e-014
lhumerus 5.44546 -29.7853 87.4521
lradius 78.2549
lwrist -10.5984
lhand -50.4271 -11.9627
lfingers 7.12502
lthumb -22.999 16.6851
rfemur -18.0889 -7.77277 17.6941
rtibia 68.5011
rfoot 8.69652 -12.5413
rtoes -7.83939
lfemur 8.62339 -2.37523 -19.1463
ltibia 27.4876
lfoot -10.6069 -9.62267
ltoes -8.00209
22
root -1.62448 17.2656 5.60152 160.395 -20.482 -176.941
lowerback 15.8238 -3.5947 -0.247457
upperback 9.98452 -6.32483 0.664371
thorax 1.89333 -3.86798 1.67485
lowerneck -8.33085 -7.26829 -1.88125
upperneck -8.81429 -10.1257 9.06859
head -0.785338 -5.46944 2.98984
rclavicle 1.17587e-013 -3.59552e-014
rhumerus -42.5136 25.9941 -99.7612
rradius 32.556
rwrist -32.0778
rhand -37.3296 1.03449
rfingers 7.12502
rthumb -10.3926 -28.6887
lclavicle 1.17587e-013 -3.59552e-014
lhumerus 7.03159 -29.365 87.0942
lradius 79.5878
lwrist -10.928
lhand -50.7571 -12.3438
lfingers 7.12502
lthumb -23.3156 16.2643
rfemur -19.3856 -7.19692 17.6281
rtibia 70.2058
rfoot 10.3349 -13.0281
rtoes -9.96593
lfemur 9.0688 -2.38519 -19.3042
ltibia 26.9875
lfoot -10.252 -9.54264
ltoes -7.52801
23
root -1.63655 17.2716 5.62793 160.125 -20.4628 -176.952
lowerback 16.3883 -3.67483 -0.508343
upperback 10.1021 -6.5256 0.733615
thorax 1.77087 -4.01036 1.96292
lowerneck -8.69192 -7.12425 -1.90516
upperneck -8.39173 -9.9376 9.01599
head -0.601028 -5.34983 2.95214
rclavicle -1.91951e-015 -2.38542e-015
rhumerus -42.835 25.9857 -99.8833
rradius 32.5756
rwrist -31.9082
rhand -37.0125 1.44367
rfingers 7.12502
rthumb -10.0867 -28.2946
lclavicle -1.91951e-015 -2.38542e-015
lhumerus 8.67607 -29.0023 86.7213
lradius 80.8711
lwrist -11.0993
lhand -51.0782 -12.7377
lfingers 7.12502
lthumb -23.6236 15.831
rfemur -20.6841 -6.60237 17.6313
rtibia 71.9261
rfoot 11.6 -13.5561
rtoes -11.9936
lfemur 9.50077 -2.44199 -19.4251
ltibia 26.5435
lfoot -9.89052 -9.42657
ltoes -6.63463
24
root -1.64712 17.2752 5.65574 159.883 -20.3944 -176.975
lowerback 16.9504 -3.74459 -0.7759
upperback 10.2088 -6.71593 0.803947
thorax 1.64274 -4.14748 2.25742
lowerneck -9.06138 -6.97292 -1.93586
upperneck -7.95834 -9.73987 8.97431
head -0.41163 -5.22487 2.92116
rclavicle -5.93745e-014 3.19546e-014
rhumerus -43.1452 26.0824 -100.006
rradius 32.6608
rwrist -31.8116
rhand -36.7089 1.78374
rfingers 7.12502
rthumb -9.79382 -27.9685
lclavicle -5.93745e-014 3.19546e-014
lhumerus 10.3724 -28.6423 86.3419
lradius 82.0758
lwrist -11.1932
lhand -51.3678 -13.1083
lfingers 7.12502
lthumb -23.9014 15.4243
rfemur -22.0242 -5.98637 17.6564
rtibia 73.6744
rfoot 12.4537 -14.1102
rtoes -12.9815
lfemur 9.86828 -2.47929 -19.5514
ltibia 26.1734
lfoot -9.57716 -9.2462
ltoes -6.00938
25
root -1.65695 17.2758 5.68515 159.598 -20.2629 -176.984
lowerback 17.5643 -3.79849 -1.01904
upperback 10.3315 -6.89365 0.870778
thorax 1.50578 -4.28083 2.53968
lowerneck -9.44958 -6.81209 -1.9549
upperneck -7.51817 -9.53235 8.93396
head -0.218045 -5.09526 2.89041
rclavicle -2.66123e-014 1.41137e-014
rhumerus -43.3995 26.2627 -100.136
rradius 32.7719
rwrist -31.7896
rhand -36.4564 2.03485
rfingers 7.12502
rthumb -9.55019 -27.7287
lclavicle -2.66123e-014 1.41137e-014
lhumerus 12.1258 -28.2779 85.9067
lradius 83.2326
lwrist -11.2146
lhand -51.6121 -13.4514
lfingers 7.12502
lthumb -24.1357 15.0503
rfemur -23.3354 -5.26945 17.7368
rtibia 75.4417
rfoot 12.853 -14.7521
rtoes -12.9223
lfemur 10.2549 -2.58012 -19.6798
ltibia 25.8696
lfoot -9.29158 -8.96496
ltoes -5.11098
26
root -1.66733 17.2747 5.71583 159.325 -20.0848 -176.974
lowerback 18.1855 -3.85345 -1.21015
upperback 10.4254 -7.06323 0.93889
thorax 1.33182 -4.40509 2.79932
lowerneck -9.79801 -6.66431 -1.9942
upperneck -7.04819 -9.33682 8.90097
head -0.0191759 -4.96889 2.86825
rclavicle 5.09386e-014 -1.66979e-014
rhumerus -43.6582 26.4814 -100.262
rradius 32.9058
rwrist -31.8342
rhand -36.1911 2.18858
rfingers 7.12502
rthumb -9.29417 -27.5866
lclavicle 5.09386e-014 -1.66979e-014
lhumerus 13.7911 -27.9088 85.506
lradius 84.3886
lwrist -11.2092
lhand -51.7613 -13.6856
lfingers 7.12502
lthumb -24.2787 14.797
rfemur -24.7012 -4.55149 17.8689
rtibia 77.2173
rfoot 12.9088 -15.3694
rtoes -12.5383
lfemur 10.5948 -2.6395 -19.7761
ltibia 25.6124
lfoot -9.02991 -8.68359
ltoes -4.38233
27
root -1.67667 17.2729 5.74706 159.016 -19.8773 -176.961
lowerback 18.8531 -3.8916 -1.41744
upperback 10.5279 -7.22315 1.01961
thorax 1.15069 -4.52867 3.08654
lowerneck -10.1309 -6.5008 -2.06518
upperneck -6.60629 -9.11737 8.88313
head 0.169585 -4.83172 2.86152
rclavicle -8.27441e-015 -2.68359e-015
rhumerus -43.9039 26.8144 -100.392
rradius 33.1103
rwrist -32.0136
rhand -35.9963 2.20873
rfingers 7.12502
rthumb -9.10619 -27.5747
lclavicle -8.27441e-015 -2.68359e-015
lhumerus 15.4356 -27.5424 85.1145
lradius 85.5301
lwrist -11.1617
lhand -51.8539 -13.7432
lfingers 7.12502
lthumb -24.3674 14.7276
rfemur -26.0909 -3.90059 18.0791
rtibia 79.0131
rfoot 12.8969 -15.8028
rtoes -12.9697
lfemur 10.9645 -2.75569 -19.8876
ltibia 25.382
lfoot -8.79954 -8.31646
ltoes -3.39182
28
root -1.68623 17.2732 5.77763 158.703 -19.6462 -176.926
lowerback 19.5062 -3.9342 -1.56007
upperback 10.6299 -7.38147 1.08452
thorax 0.970374 -4.64799 3.32284
lowerneck -10.4283 -6.35431 -2.14559
upperneck -6.19124 -8.91915 8.883
head 0.346823 -4.70684 2.86537
rclavicle 1.16935e-013 -5.52621e-014
rhumerus -44.1675 27.2032 -100.561
rradius 33.4018
rwrist -32.2866
rhand -35.8614 2.17169
rfingers 7.12502
rthumb -8.9761 -27.6174
lclavicle 1.16935e-013 -5.52621e-014
lhumerus 17.0661 -27.1849 84.6999
lradius 86.5919
lwrist -11.1648
lhand -51.9494 -13.7216
lfingers 7.12502
lthumb -24.459 14.7368
rfemur -27.5308 -3.32859 18.3791
rtibia 80.8163
rfoot 12.874 -16.1338
rtoes -13.8374
lfemur 11.3255 -2.81402 -19.9532
ltibia 25.1611
lfoot -8.61125 -7.98452
ltoes -2.85927
